<svg width="20" height="16" viewBox="0 0 20 16" fill="none" xmlns="http://www.w3.org/2000/svg">
<path d="M17 11H20V13H8.98145C8.98145 14.6569 7.6383 16 5.98145 16C4.32459 16 2.98145 14.6569 2.98145 13H0V0H17V11ZM5.98145 11.6211C5.21976 11.6211 4.60254 12.2383 4.60254 13C4.60254 13.7617 5.21976 14.3789 5.98145 14.3789C6.74313 14.3789 7.36035 13.7617 7.36035 13C7.36035 12.2383 6.74313 11.6211 5.98145 11.6211ZM2.98145 10H3.98145V2H2.98145V10ZM5.98145 10H6.98145V2H5.98145V10ZM8.98145 10H9.98145V2H8.98145V10ZM11.9814 10H12.9814V2H11.9814V10Z" fill="#DA7756"/>
</svg>
