<svg width="19" height="16" viewBox="0 0 19 16" fill="none" xmlns="http://www.w3.org/2000/svg">
<path d="M4 11.5098C4.74362 11.5098 5.40106 11.8728 5.80957 12.4297C5.80674 12.483 5.80664 12.5368 5.80664 12.5908V16H1.75586V13.7549C1.75586 12.5152 2.7603 11.5099 4 11.5098ZM9.5 10.2559C11.1569 10.2559 12.5 11.599 12.5 13.2559V16H6.5V13.2559C6.5 11.5991 7.84326 10.256 9.5 10.2559ZM15 11.5098C16.2398 11.5098 17.2451 12.5151 17.2451 13.7549V16H13.1943V12.5908C13.1943 12.5368 13.1923 12.4831 13.1895 12.4297C13.5979 11.8724 14.2562 11.5098 15 11.5098ZM4 8.4375C4.68227 8.4375 5.23535 8.99059 5.23535 9.67285C5.23509 10.3549 4.6821 10.9082 4 10.9082C3.31801 10.9081 2.76491 10.3548 2.76465 9.67285C2.76465 8.99067 3.31785 8.43763 4 8.4375ZM15 8.4375C15.6823 8.4375 16.2354 8.99059 16.2354 9.67285C16.2351 10.3549 15.6821 10.9082 15 10.9082C14.318 10.9081 13.7649 10.3548 13.7646 9.67285C13.7646 8.99067 14.3178 8.43763 15 8.4375ZM9.5 5.5C10.6046 5.5 11.5 6.39543 11.5 7.5C11.4997 8.60435 10.6044 9.5 9.5 9.5C8.39571 9.49987 7.50026 8.60426 7.5 7.5C7.5 6.39551 8.39554 5.50013 9.5 5.5ZM19 5L18 6.5L9.5 2L1 6.5L0 5L9.5 0L19 5Z" fill="#DA7756"/>
</svg>
