<svg width="17" height="16" viewBox="0 0 17 16" fill="none" xmlns="http://www.w3.org/2000/svg">
<path d="M10.0244 4C10.0815 4.01814 13.5221 5.12759 15.0039 9.45508C16.3797 13.4731 16.0051 15.967 16 16H0.0654297C0.0604077 15.9735 -0.373679 13.6483 1.06152 9.45508C2.49841 5.25716 6.00772 4.01139 6.04004 4H10.0244ZM7.58301 7.70996C7.2283 7.76079 6.94283 7.86439 6.72754 8.02246C6.41487 8.25113 6.25781 8.58694 6.25781 9.03027C6.25783 9.27287 6.29547 9.47852 6.37012 9.64648C6.44947 9.81418 6.57781 9.95674 6.75488 10.0732C6.9321 10.1897 7.17275 10.2976 7.47559 10.3955C7.70389 10.4654 7.88946 10.5237 8.0293 10.5703C8.17311 10.6168 8.27855 10.6679 8.34375 10.7236C8.41339 10.7796 8.44921 10.8573 8.44922 10.9551C8.44922 11.0948 8.38742 11.1864 8.2666 11.2285C8.1501 11.2657 7.97467 11.2841 7.74219 11.2842C7.51856 11.2842 7.27767 11.2538 7.02148 11.1934C6.76518 11.1328 6.53106 11.0529 6.32129 10.9551V12.04C6.51236 12.1285 6.74359 12.1988 7.01367 12.25C7.19563 12.2813 7.3863 12.3003 7.58301 12.3105V13.25H8.58301V12.2559C8.88419 12.196 9.13005 12.0952 9.31738 11.9492C9.63426 11.6973 9.79297 11.3654 9.79297 10.9551C9.79296 10.7219 9.75838 10.5139 9.68848 10.332C9.61854 10.1455 9.48475 9.98171 9.28906 9.8418C9.09791 9.70197 8.81729 9.58327 8.44922 9.48535C8.13263 9.40155 7.91033 9.33352 7.78418 9.28223C7.66296 9.22628 7.60265 9.13994 7.60254 9.02344C7.60254 8.8881 7.67467 8.80415 7.81934 8.77148C7.96373 8.73898 8.13903 8.7217 8.34375 8.72168C8.52083 8.72174 8.71079 8.74105 8.91113 8.77832C9.11147 8.81567 9.32208 8.8783 9.54102 8.9668V7.875C9.37795 7.82376 9.16283 7.77729 8.89746 7.73535C8.79199 7.7184 8.68621 7.70639 8.58301 7.69629V6.75H7.58301V7.70996ZM10.0322 3H6.03223L4.03223 0H12.0322L10.0322 3Z" fill="#DA7756"/>
</svg>
