<svg width="20" height="14" viewBox="0 0 20 14" fill="none" xmlns="http://www.w3.org/2000/svg">
<path d="M16.5 5L20 5.5V12H17.8262C17.4141 13.1647 16.3059 14 15 14C13.6941 14 12.5859 13.1647 12.1738 12H7.80762C7.3955 13.1647 6.2873 14 4.98145 14C3.67559 14 2.56739 13.1647 2.15527 12H0V5H1.5L3.5 0H12.5L16.5 5ZM5.05664 9.6123C4.24394 9.6125 3.58516 10.2713 3.58496 11.084C3.58496 11.4303 3.70513 11.7486 3.90527 12H3.86621C3.95827 12.1026 4.06492 12.1913 4.18164 12.2656C4.42641 12.4473 4.72841 12.5566 5.05664 12.5566C5.86963 12.5566 6.5293 11.897 6.5293 11.084C6.5291 10.2712 5.86951 9.6123 5.05664 9.6123ZM15.0088 9.6123C14.1959 9.6123 13.5373 10.2712 13.5371 11.084C13.5371 11.897 14.1958 12.5566 15.0088 12.5566C15.8217 12.5566 16.4805 11.8969 16.4805 11.084C16.4803 10.2712 15.8216 9.61237 15.0088 9.6123ZM4 5H7.5V2H5L4 5ZM9 5H14L11.5 2H9V5Z" fill="#DA7756"/>
</svg>
