<svg width="18" height="18" viewBox="0 0 18 18" fill="none" xmlns="http://www.w3.org/2000/svg">
<path d="M8.72852 2.25098C12.9078 2.25098 16.2957 5.63911 16.2959 9.81836C16.2959 11.4898 15.7526 13.0338 14.835 14.2861L16.832 16.2402L15.2783 17.7588L13.3193 15.832C12.0458 16.806 10.4555 17.3867 8.72852 17.3867C6.99424 17.3867 5.3973 16.8017 4.12109 15.8203L2.16992 17.7402L0.617188 16.2217L2.60938 14.2695C1.6992 13.0202 1.16113 11.4823 1.16113 9.81836C1.16133 5.63915 4.54928 2.25104 8.72852 2.25098ZM7.89746 10.0791L10.6318 12.7197L11.752 11.6055L9.6543 9.49805V5.44141H7.89746V10.0791ZM14.2393 0C16.0265 0 17.4755 1.44908 17.4756 3.23633C17.4756 3.98175 17.2204 4.66576 16.7969 5.21289C15.7242 3.28619 13.9834 1.78306 11.8857 1.01953C12.4758 0.393233 13.3109 0.000102796 14.2393 0ZM3.23633 0C4.16225 3.41747e-05 4.9951 0.3913 5.58496 1.01465C3.48612 1.7749 1.74256 3.27476 0.666992 5.19922C0.250188 4.65446 0 3.97523 0 3.23633C6.59699e-05 1.44908 1.44906 0 3.23633 0Z" fill="#DA7756"/>
</svg>
